<svg width="84" height="84" viewBox="0 0 84 84" fill="none" xmlns="http://www.w3.org/2000/svg">
<path fill-rule="evenodd" clip-rule="evenodd" d="M3.5 42C3.5 20.737 20.737 3.5 42 3.5C63.263 3.5 80.5 20.737 80.5 42C80.5 63.263 63.263 80.5 42 80.5C20.737 80.5 3.5 63.263 3.5 42Z" fill="#454545"/>
<path fill-rule="evenodd" clip-rule="evenodd" d="M60.5865 28.1503C61.9533 29.5171 61.9533 31.7332 60.5865 33.1L38.8616 55.85C37.4948 57.2168 35.2787 57.2168 33.9118 55.85L23.4118 45.35C22.045 43.9832 22.045 41.7671 23.4118 40.4003C24.7787 39.0334 26.9948 39.0334 28.3616 40.4003L36.3867 48.4254L55.6367 28.1503C57.0036 26.7834 59.2196 26.7834 60.5865 28.1503Z" fill="white"/>
</svg>
