<svg width="84" height="84" viewBox="0 0 84 84" fill="none" xmlns="http://www.w3.org/2000/svg">
<path opacity="0.1" d="M42 0L78.3731 21V63L42 84L5.62693 63V21L42 0Z" fill="#454545"/>
<path d="M29.9584 37.75H32.0834V34.9166C32.0834 29.4486 36.5318 25 42 25C47.4682 25 51.9166 29.4486 51.9166 34.9166V37.75H54.0416C54.4332 37.75 54.75 38.0668 54.75 38.4584V56.1667C54.75 57.7293 53.4793 59 51.9166 59H32.0833C30.5207 59 29.25 57.7293 29.25 56.1666V38.4584C29.25 38.0668 29.5668 37.75 29.9584 37.75ZM39.8791 52.5468C39.857 52.7467 39.9213 52.9473 40.0555 53.0975C40.1897 53.2476 40.382 53.3334 40.5833 53.3334H43.4166C43.6179 53.3334 43.8102 53.2476 43.9444 53.0975C44.0786 52.9474 44.143 52.7468 44.1208 52.5468L43.674 48.5286C44.3996 48.0008 44.8333 47.1659 44.8333 46.25C44.8333 44.6874 43.5626 43.4166 41.9999 43.4166C40.4373 43.4166 39.1666 44.6873 39.1666 46.25C39.1666 47.1659 39.6003 48.0008 40.3259 48.5286L39.8791 52.5468ZM36.3334 37.75H47.6666V34.9166C47.6666 31.7921 45.1245 29.25 42 29.25C38.8755 29.25 36.3334 31.7921 36.3334 34.9166V37.75Z" fill="#454545"/>
</svg>
