<svg width="84" height="84" viewBox="0 0 84 84" fill="none" xmlns="http://www.w3.org/2000/svg">
<path opacity="0.1" d="M42 0L78.3731 21V63L42 84L5.62693 63V21L42 0Z" fill="#454545"/>
<path d="M54.8525 27.606L25.7388 35.8176C25.4939 35.8867 25.2759 36.0289 25.1139 36.2252C24.952 36.4215 24.8538 36.6625 24.8325 36.9161C24.8112 37.1697 24.8678 37.4237 24.9948 37.6443C25.1218 37.8648 25.313 38.0414 25.543 38.1503L38.9197 44.4866C39.1806 44.6102 39.3907 44.8203 39.5143 45.0812L45.8506 58.4579C45.9595 58.6879 46.1361 58.8791 46.3566 59.0061C46.5772 59.1331 46.8312 59.1897 47.0848 59.1684C47.3384 59.1471 47.5795 59.0489 47.7758 58.887C47.9721 58.725 48.1143 58.507 48.1833 58.2621L56.3949 29.1484C56.4552 28.9346 56.4574 28.7085 56.4013 28.4935C56.3452 28.2785 56.2328 28.0823 56.0757 27.9252C55.9186 27.7681 55.7224 27.6557 55.5074 27.5996C55.2924 27.5435 55.0664 27.5457 54.8525 27.606Z" fill="#454545" stroke="white" stroke-linecap="round" stroke-linejoin="round"/>
<path d="M39.3223 44.6778L46.3933 37.6067" stroke="white" stroke-linecap="round" stroke-linejoin="round"/>
</svg>
