<svg width="84" height="84" viewBox="0 0 84 84" fill="none" xmlns="http://www.w3.org/2000/svg">
<path opacity="0.1" d="M42 0L78.3731 21V63L42 84L5.62693 63V21L42 0Z" fill="#454545"/>
<g clip-path="url(#clip0_5_25)">
<path d="M57.757 35.8418L54.6488 30.4669C54.3102 29.8464 53.5792 29.522 52.8128 29.8053L49.3009 31.2163C48.6337 30.736 47.9324 30.328 47.2071 30.0008L46.673 26.275C46.5823 25.5483 45.9519 25 45.2067 25H38.9734C38.2282 25 37.5978 25.5482 37.5085 26.2622L36.973 29.9994C36.2704 30.3181 35.5804 30.7205 34.8834 31.2163L31.3617 29.8011C30.6845 29.5405 29.877 29.8337 29.5398 30.45L26.426 35.8346C26.052 36.4693 26.2064 37.2924 26.7872 37.7514L29.7636 40.0775C29.7169 40.5266 29.6942 40.919 29.6942 41.2916C29.6942 41.6642 29.7169 42.0566 29.7622 42.5058L26.7844 44.8334C26.2163 45.2825 26.0605 46.0786 26.4231 46.7416L29.5313 52.1179C29.8699 52.737 30.6023 53.0614 31.3686 52.778L34.8805 51.367C35.5478 51.8472 36.249 52.2552 36.9744 52.5825L37.5085 56.3069C37.5978 57.035 38.2281 57.5833 38.9734 57.5833H43.8552C44.1201 57.5833 44.361 57.4359 44.4828 57.2022C44.6047 56.9684 44.5862 56.6865 44.4361 56.4698C43.3523 54.9171 42.7786 53.0967 42.7786 51.2083C42.7786 50.3271 42.9075 49.4445 43.1625 48.5846C43.2276 48.3636 43.1823 48.1256 43.0392 47.9443C42.8961 47.7644 42.6766 47.668 42.4456 47.6751C42.3691 47.6794 42.294 47.6893 42.1014 47.7134C38.5781 47.7134 35.7122 44.8475 35.7122 41.3243C35.7122 37.801 38.5781 34.9336 42.1014 34.9336C45.6246 34.9336 48.4905 37.7995 48.4778 41.4404C48.4679 41.5155 48.4579 41.5905 48.4536 41.667C48.4423 41.8979 48.5429 42.1189 48.7228 42.2606C48.9041 42.4037 49.1435 42.4463 49.3631 42.3839C50.7415 41.973 52.1001 41.8753 53.6386 42.1544C53.827 42.1884 54.0339 42.1034 54.1925 41.9858C54.3498 41.8682 54.4546 41.65 54.4759 41.4545C54.4788 41.429 54.4858 41.3143 54.4858 41.2888C54.4858 40.8482 54.4546 40.4331 54.4178 40.0747L57.3943 37.75C57.9624 37.3024 58.1182 36.5061 57.757 35.8418Z" fill="#454545"/>
<path d="M59.0703 44.8334C58.6793 44.8334 58.362 45.1507 58.362 45.5417V47.2701C57.2938 45.3902 55.1603 43.4167 51.987 43.4167C47.6902 43.4167 44.1953 46.9116 44.1953 51.2084C44.1953 55.5051 47.6903 59 51.987 59C52.378 59 52.6954 58.6826 52.6954 58.2916C52.6954 57.9006 52.378 57.5833 51.987 57.5833C48.4723 57.5833 45.612 54.723 45.612 51.2083C45.612 47.6935 48.4723 44.8333 51.987 44.8333C55.3275 44.8333 57.1649 47.5929 57.6169 49.0833H54.8204C54.4294 49.0833 54.112 49.4006 54.112 49.7916C54.112 50.1826 54.4294 50.5 54.8204 50.5H59.0704C59.4614 50.5 59.7787 50.1826 59.7787 49.7916V45.5416C59.7787 45.1506 59.4628 44.8334 59.0703 44.8334Z" fill="#454545"/>
</g>
<defs>
<clipPath id="clip0_5_25">
<rect width="34" height="34" fill="white" transform="translate(26 25)"/>
</clipPath>
</defs>
</svg>
