<svg width="26" height="25" viewBox="0 0 26 25" fill="none" xmlns="http://www.w3.org/2000/svg">
<path d="M25.3953 15.2673L20.3365 9.82342L21.9534 2.5701C22.0435 2.16528 21.8961 1.74432 21.5733 1.48446C21.2504 1.2246 20.8078 1.17026 20.4315 1.34499L13.6909 4.47379L7.29196 0.694346C6.51663 0.236413 5.54845 0.868336 5.6567 1.76316L6.54919 9.14094L0.977361 14.0588C0.302362 14.655 0.603847 15.7716 1.48853 15.9443L8.78096 17.3754C12.0007 24.8029 11.7648 24.3776 12.0527 24.6094C12.2286 24.751 12.4477 24.8373 12.6822 24.8488C13.0962 24.8691 13.4861 24.653 13.6878 24.2909L17.3021 17.7972L24.7001 17.0931C25.5966 17.0083 26.0091 15.9281 25.3953 15.2673Z" fill="#FFA92C"/>
</svg>
