<svg width="100" height="100" viewBox="0 0 100 100" fill="none" xmlns="http://www.w3.org/2000/svg">
<path d="M44.5903 15.619L10.2246 74.991C9.67469 75.941 9.3847 77.0191 9.38379 78.1168C9.38288 79.2145 9.67109 80.2931 10.2194 81.244C10.7677 82.195 11.5568 82.9847 12.5073 83.5338C13.4578 84.0829 14.5361 84.372 15.6338 84.372H84.3652C85.4629 84.372 86.5413 84.0829 87.4918 83.5338C88.4422 82.9847 89.2313 82.195 89.7797 81.244C90.328 80.2931 90.6162 79.2145 90.6153 78.1168C90.6144 77.0191 90.3244 75.941 89.7745 74.991L55.4087 15.619C54.8597 14.6705 54.0709 13.8831 53.1215 13.3356C52.1721 12.7882 51.0955 12.5 49.9995 12.5C48.9036 12.5 47.8269 12.7882 46.8775 13.3356C45.9281 13.8831 45.1393 14.6705 44.5903 15.619V15.619Z" stroke="#EE3E3E" stroke-width="6" stroke-linecap="round" stroke-linejoin="round"/>
<path d="M50 40.625V56.25" stroke="#EE3E3E" stroke-width="4" stroke-linecap="round" stroke-linejoin="round"/>
<path d="M50 75C52.5888 75 54.6875 72.9013 54.6875 70.3125C54.6875 67.7237 52.5888 65.625 50 65.625C47.4112 65.625 45.3125 67.7237 45.3125 70.3125C45.3125 72.9013 47.4112 75 50 75Z" fill="#EE3E3E"/>
</svg>
