<svg width="17" height="17" viewBox="0 0 17 17" fill="none" xmlns="http://www.w3.org/2000/svg">
<path d="M5.30287 16.6014C4.98921 16.4676 4.79519 16.1483 4.82156 15.8084C5.19199 11.0511 4.58923 9.55239 1.02945 6.37537C0.775561 6.14809 0.69403 5.78382 0.827945 5.46986C0.96173 5.1562 1.2812 4.96261 1.62084 4.98884C6.37808 5.35927 7.87682 4.75653 11.0538 1.19674C11.2811 0.942113 11.6455 0.861016 11.9595 0.994931C12.2734 1.12885 12.4666 1.44775 12.4407 1.78827C12.0704 6.5452 12.6731 8.04393 16.2328 11.2213C16.4868 11.4482 16.5682 11.8128 16.4344 12.1265C16.3005 12.4404 15.9812 12.6337 15.6414 12.6078C10.884 12.2377 9.38553 12.8398 6.20838 16.3999C5.98066 16.654 5.61653 16.7352 5.30287 16.6014Z" fill="white"/>
</svg>
